<?xml version="1.0" encoding="UTF-8"?>
<!DOCTYPE svg PUBLIC "-//W3C//DTD SVG 1.1//EN" "http://www.w3.org/Graphics/SVG/1.1/DTD/svg11.dtd">
<!-- Creator: CorelDRAW 2021 (64-Bit) -->
<svg xmlns="http://www.w3.org/2000/svg" xml:space="preserve" width="3.95199in" height="3.95259in" version="1.1" style="shape-rendering:geometricPrecision; text-rendering:geometricPrecision; image-rendering:optimizeQuality; fill-rule:evenodd; clip-rule:evenodd"
viewBox="0 0 383.34 383.4"
 xmlns:xlink="http://www.w3.org/1999/xlink"
 xmlns:xodm="http://www.corel.com/coreldraw/odm/2003">
 <defs>
  <style type="text/css">
   <![CDATA[
    .fil0 {fill:#FEFEFE}
    .fil1 {fill:#E48E15}
   ]]>
  </style>
 </defs>
 <g id="Capa_x0020_1">
  <metadata id="CorelCorpID_0Corel-Layer"/>
  <g id="_2102856636800">
   <path class="fil0" d="M180.33 0.4c-102.1,6.48 -186.73,92.97 -179.94,203.21 6.24,101.35 93.31,186.17 202.84,179.42 101.89,-6.28 186.5,-93.29 179.74,-203.21 -6.22,-101.12 -93.37,-186.34 -202.63,-179.41zm-78.56 158.8l12.85 4.42c9.51,-31.23 42.64,-53.54 77.06,-54.04l-0 -13.69c-23.41,0.3 -42.6,8.16 -57.19,18.95 -10.12,7.48 -29.11,27.46 -32.72,44.36zm89.91 114.65l0 13.68c23.41,-0.29 42.6,-8.17 57.19,-18.95 10.07,-7.44 29.16,-27.51 32.71,-44.34l-12.84 -4.43c-4.99,16.36 -17.66,29.87 -27.69,37.54 -12.25,9.37 -29.46,16.21 -49.37,16.51zm0 27.38l0 13.68c30.01,-0.3 55.3,-10.65 73.81,-24.57 13.73,-10.33 35.86,-33.82 41.84,-56.77l-12.87 -4.41c-2.85,10.03 -9.98,21.57 -15.39,28.55 -20.53,26.49 -49.75,43.1 -87.39,43.52zm-115.65 -151.37l12.87 4.42c5.44,-19.56 22.22,-38.75 37.27,-50.33 16.29,-12.53 39.13,-21.46 65.51,-21.75l-0 -13.68c-29.77,0.29 -55.5,10.78 -73.81,24.57 -13.72,10.32 -35.88,33.83 -41.83,56.78zm-25.75 -9.33l12.18 4.16c1.81,-2.06 7.05,-14.67 9,-18.42 22.28,-42.9 69,-70.95 120.22,-71.44l-0 -13.68c-36.07,0.34 -67.64,12.86 -89.95,29.82 -20.48,15.57 -44.83,43.99 -51.45,69.57zm141.4 188.08l0 13.68c50.61,-0.38 92.5,-23.8 120.01,-59.66 6.78,-8.84 17.98,-26.59 21.39,-39.73l-12.18 -4.16c-2.04,2.32 -6.95,14.48 -8.99,18.42 -22.28,42.9 -69,70.95 -120.22,71.44zm-6.31 -205.04c-35.78,3.48 -65.75,34.8 -61.8,74.89 3.48,35.23 34.8,65.22 74.57,61.41 35.66,-3.42 65.58,-34.99 61.65,-74.9 -3.47,-35.16 -34.82,-65.24 -74.42,-61.4z"/>
   <path class="fil1" d="M183.58 137.68c-27.42,4.17 -51.36,29.64 -45.99,62.67 4.42,27.15 30.07,50.56 62.78,45.44 26.87,-4.21 50.65,-30.3 45.38,-62.73 -4.39,-27.06 -29.78,-50.31 -62.17,-45.38zm4.71 40.89c-18.12,5.25 -9.9,31.04 7.12,26.28 17.16,-4.8 9.81,-31.18 -7.12,-26.28z"/>
  </g>
 </g>
</svg>
