<?xml version="1.0" encoding="UTF-8"?>
<!DOCTYPE svg PUBLIC "-//W3C//DTD SVG 1.1//EN" "http://www.w3.org/Graphics/SVG/1.1/DTD/svg11.dtd">
<!-- Creator: CorelDRAW 2021 (64-Bit) -->
<svg xmlns="http://www.w3.org/2000/svg" xml:space="preserve" width="3.95199in" height="3.95259in" version="1.1" style="shape-rendering:geometricPrecision; text-rendering:geometricPrecision; image-rendering:optimizeQuality; fill-rule:evenodd; clip-rule:evenodd"
viewBox="0 0 646.48 646.58"
 xmlns:xlink="http://www.w3.org/1999/xlink"
 xmlns:xodm="http://www.corel.com/coreldraw/odm/2003">
 <defs>
  <style type="text/css">
   <![CDATA[
    .fil0 {fill:#151515}
    .fil1 {fill:#E48E15}
   ]]>
  </style>
 </defs>
 <g id="Capa_x0020_1">
  <metadata id="CorelCorpID_0Corel-Layer"/>
  <g id="_2102440203680">
   <path class="fil0" d="M304.11 0.67c-172.18,10.93 -314.91,156.78 -303.46,342.7 10.52,170.93 157.36,313.97 342.08,302.58 171.83,-10.59 314.53,-157.33 303.12,-342.71 -10.5,-170.53 -157.46,-314.26 -341.73,-302.57zm-132.49 267.8l21.67 7.46c16.03,-52.66 71.91,-90.29 129.96,-91.14l-0 -23.08c-39.48,0.51 -71.84,13.76 -96.44,31.96 -17.07,12.62 -49.09,46.3 -55.18,74.8zm151.62 193.35l0 23.07c39.48,-0.48 71.85,-13.78 96.44,-31.96 16.98,-12.55 49.17,-46.39 55.16,-74.78l-21.65 -7.48c-8.41,27.58 -29.78,50.38 -46.7,63.31 -20.66,15.79 -49.69,27.34 -83.26,27.84zm0 46.17l0 23.07c50.6,-0.5 93.27,-17.95 124.48,-41.44 23.16,-17.42 60.48,-57.03 70.55,-95.74l-21.7 -7.44c-4.8,16.91 -16.83,36.38 -25.96,48.15 -34.62,44.67 -83.91,72.69 -147.38,73.39zm-195.04 -255.28l21.7 7.45c9.18,-32.98 37.47,-65.35 62.86,-84.87 27.46,-21.12 65.98,-36.2 110.48,-36.69l-0 -23.07c-50.2,0.5 -93.59,18.19 -124.48,41.43 -23.13,17.41 -60.51,57.06 -70.55,95.75zm-43.43 -15.74l20.54 7.01c3.05,-3.48 11.89,-24.75 15.17,-31.07 37.58,-72.34 116.36,-119.65 202.75,-120.49l-0 -23.07c-60.82,0.57 -114.07,21.69 -151.69,50.3 -34.54,26.27 -75.61,74.19 -86.77,117.32zm238.46 317.19l0 23.07c85.35,-0.64 156,-40.14 202.39,-100.61 11.43,-14.91 30.32,-44.84 36.07,-67.01l-20.54 -7.01c-3.44,3.91 -11.72,24.42 -15.17,31.07 -37.57,72.34 -116.37,119.65 -202.75,120.49zm-10.65 -345.78c-60.34,5.87 -110.89,58.69 -104.21,126.3 5.87,59.42 58.69,109.98 125.76,103.56 60.14,-5.76 110.6,-59.02 103.96,-126.31 -5.85,-59.29 -58.72,-110.03 -125.51,-103.54z"/>
   <path class="fil1" d="M309.6 232.19c-46.24,7.03 -86.62,49.99 -77.56,105.69 7.45,45.79 50.71,85.27 105.87,76.63 45.32,-7.09 85.41,-51.1 76.54,-105.79 -7.41,-45.64 -50.21,-84.84 -104.85,-76.53zm7.94 68.96c-30.55,8.86 -16.69,52.35 12.01,44.31 28.94,-8.1 16.54,-52.59 -12.01,-44.31z"/>
  </g>
 </g>
</svg>
